<svg xmlns="http://www.w3.org/2000/svg" xmlns:xlink="http://www.w3.org/1999/xlink" width="1000" height="1000" viewBox="0 0 1000 1000">
  <defs>
    <filter id="Rectangle_100" x="162.63" y="330.663" width="663" height="399" filterUnits="userSpaceOnUse">
      <feOffset dx="10" dy="6" input="SourceAlpha"/>
      <feGaussianBlur stdDeviation="3" result="blur"/>
      <feFlood flood-opacity="0.161"/>
      <feComposite operator="in" in2="blur"/>
      <feComposite in="SourceGraphic"/>
    </filter>
  </defs>
  <g id="Group_30" data-name="Group 30" transform="translate(-859.497 -100.104)">
    <path id="Path_50" data-name="Path 50" d="M228.475,9.841c82.659-4.427,179.772-32.768,233.9,33.108,55.066,67.021,26.272,168.15.851,252.606C440.994,369.4,397.307,430.139,333.948,469.6c-72.583,45.21-161.5,96.153-235.191,52.967C26.8,480.4,38.645,373.538,24.4,288.189,11.624,211.611-22.485,128.063,22.65,66.5,68.22,4.345,153.959,13.832,228.475,9.841" transform="matrix(0.996, -0.087, 0.087, 0.996, 859.497, 257.905)" fill="#dc86dc"/>
    <path id="Path_51" data-name="Path 51" d="M216.125,5.106c81.448-27.26,159.959,59.818,209.113,138.048,45.743,72.8,62.743,167.525,35.548,251.338-24.094,74.254-95.153,105.868-160.6,134.045-56.438,24.3-116.3,35.436-172.043,9.174C68.292,509.514,1.981,460.326.028,387.131-1.809,318.262,87.5,303.267,120.344,245.2c44.025-77.828,17.364-213.848,95.781-240.093" transform="translate(1159.226 555.577) rotate(-74)" fill="#42c050"/>
    <path id="Path_48" data-name="Path 48" d="M255.06,2.632C310.361-2.762,369.428-3.237,415.243,35c46.4,38.73,67.371,106.9,84.872,172.164,17.544,65.424,42.672,140.611,15.1,200.645-27.329,59.5-97.981,54.466-147.132,86.821-39.848,26.231-68.285,76.032-113.02,84.431-48.823,9.167-103.374,1.854-141.414-36.66C76.336,504.63,78.452,436.74,60.27,381.852,40.123,321.032-9.1,268.107,1.471,203.777c10.7-65.117,65.38-103.083,110.962-139.238C155.815,30.128,203.507,7.661,255.06,2.632" transform="translate(1661.904 392.791) rotate(68)" fill="#ffd31d"/>
    <g transform="matrix(1, 0, 0, 1, 859.5, 100.1)" filter="url(#Rectangle_100)">
      <rect id="Rectangle_100-2" data-name="Rectangle 100" width="381" height="644" rx="23" transform="translate(806.63 333.66) rotate(90)" fill="#fff"/>
    </g>
    <text id="To_continue_uninterrupted_services_subscribe_now." data-name="To continue uninterrupted
services subscribe now." transform="translate(1346.704 596.867)" font-size="50" font-family="PTSans-Regular, PT Sans"><tspan x="-277" y="0">To continue uninterrupted</tspan><tspan x="-247.425" y="65">services subscribe now.</tspan></text>
  </g>
</svg>
